<svg width="1001" height="366" viewBox="0 0 1001 366" fill="none" xmlns="http://www.w3.org/2000/svg">
<g opacity="0.15">
<path d="M0 365.523L302.707 259.883H352.357L126.529 365.523H0Z" fill="#1E5631"/>
<path d="M389.177 259.51H438.827L344.332 365.152H219.405L389.177 259.51Z" fill="#4C9A2A"/>
<path d="M475.681 259.51L438.841 365.152H563.771L526.931 259.51H475.681Z" fill="#ACDF87"/>
<path d="M563.748 259.509L656.642 365.152H783.174L611.798 259.509H563.748Z" fill="#76BA1B"/>
<path d="M650.247 259.51L874.473 365.152H1001L698.298 259.51H650.247Z" fill="#A4DE02"/>
<path d="M352.36 259.883L302.702 259.889V259.745C302.702 257.447 304.349 255.288 307.119 253.794C307.488 253.596 307.846 253.388 308.194 253.171L340.747 232.807C345.048 230.116 352.355 232.039 352.356 235.861L352.36 259.883Z" fill="#184425"/>
<path d="M438.842 181.38V259.51H389.193V203.916C389.193 202.769 389.92 201.669 391.211 200.861L427.235 178.325C431.537 175.634 438.842 177.558 438.842 181.38Z" fill="#3E7C22"/>
<path d="M497.342 139.536L524.116 151.744C525.893 152.552 526.941 153.85 526.941 155.231V259.51H475.691V149.811C475.691 148.663 476.416 147.563 477.706 146.755L488.556 139.967C490.926 138.487 494.64 138.304 497.342 139.536Z" fill="#91BC6F"/>
<path d="M565.758 153.34L600.178 131.531C604.467 128.814 611.817 130.731 611.817 134.567V259.51H563.771V156.376C563.771 155.238 564.482 154.146 565.758 153.34Z" fill="#6BA017"/>
<path d="M652.249 98.5426L688.009 75.8863C692.306 73.1618 699.675 75.098 699.648 78.9445L698.313 259.51H650.262V101.578C650.262 100.441 650.978 99.3481 652.249 98.5426Z" fill="#90B700"/>
</g>
<path opacity="0.15" d="M692.73 34.2188L678.651 67.8074C676.41 73.1518 670.843 75.3994 665.933 74.2326C663.282 73.6025 660.822 71.9789 659.179 69.311L655.974 64.1072L643.819 71.6279L605.873 95.1034L576.425 113.323L539.614 136.095L532.534 140.475C531.109 141.357 529.446 141.587 527.912 141.223C526.7 140.935 525.571 140.275 524.706 139.274L516.925 130.257L502.228 113.22C501.363 112.219 500.234 111.559 499.022 111.271C497.504 110.91 495.852 111.133 494.435 111.997L486.645 116.752L453.452 136.992L420.542 157.064L392.388 174.235L354.442 197.378L353.362 198.037C351.931 198.909 350.286 199.123 348.776 198.764C347.248 198.401 345.86 197.452 344.978 196.004L335.978 181.237C334.224 178.361 335.134 174.606 338.011 172.851L500.427 73.803C501.845 72.9385 503.493 72.7152 505.012 73.0761C506.23 73.3655 507.356 74.0243 508.221 75.0257L530.59 100.955C531.458 101.958 532.588 102.617 533.796 102.904C535.33 103.269 536.993 103.038 538.418 102.157L549.276 95.4402L566.335 84.8869L615.536 54.4424L623.257 49.6669L640.51 38.9924L636.949 33.2052C632.266 25.6011 638.159 15.8811 647.057 16.5032L683.379 19.0331C684.003 19.0751 684.614 19.1689 685.196 19.3071C691.612 20.832 695.398 27.8659 692.73 34.2188Z" fill="url(#paint0_linear_12339_103801)"/>
<defs>
<linearGradient id="paint0_linear_12339_103801" x1="263.879" y1="26.1627" x2="825.575" y2="159.649" gradientUnits="userSpaceOnUse">
<stop stop-color="#184425"/>
<stop offset="0.239721" stop-color="#3E7C22"/>
<stop offset="0.25" stop-color="#3E7C22"/>
<stop offset="0.496369" stop-color="#91BC6F"/>
<stop offset="0.5" stop-color="#91BC6F"/>
<stop offset="0.699823" stop-color="#6BA017"/>
<stop offset="0.75" stop-color="#6BA017"/>
<stop offset="0.917324" stop-color="#90B700"/>
<stop offset="1" stop-color="#90B700"/>
</linearGradient>
</defs>
</svg>
