<svg xmlns="http://www.w3.org/2000/svg" width="88" height="88" viewBox="0 0 88 88" fill="none"><rect width="88" height="88" rx="9" fill="url(#paint0_linear_136_590)"></rect><g clip-path="url(#clip0_136_590)"><path fill-rule="evenodd" clip-rule="evenodd" d="M58.4789 18.6504C60.1916 19.6161 61.8001 20.7449 63.2835 22.0157C63.2833 21.8815 63.2757 21.7459 63.2601 21.6095C63.0363 19.6453 61.2626 18.2344 59.2984 18.4582C59.0124 18.4908 58.7382 18.5562 58.4789 18.6504ZM17.2731 30.5619C14.9703 34.8142 13.6627 39.6843 13.6627 44.8599C13.6627 45.8462 13.7102 46.8214 13.803 47.7833C11.2625 49.3649 9.71747 52.3138 10.0788 55.4849L10.5364 59.5015C11.0366 63.8914 15.0007 67.0447 19.3906 66.5445L22.5345 66.1863C27.9706 71.5895 35.461 74.9284 43.7312 74.9284C54.4526 74.9284 63.8635 69.317 69.187 60.8709L71.7534 60.5785C76.1433 60.0783 79.2965 56.1142 78.7964 51.7243L78.3387 47.7077C78.0039 44.769 76.1167 42.3844 73.5887 41.2791C72.8224 34.8208 70.0091 28.9902 65.8158 24.4541C66.207 23.4763 66.3685 22.3902 66.2408 21.2699C65.8295 17.6595 62.5692 15.0661 58.9588 15.4775C57.553 15.6377 56.3013 16.2298 55.3213 17.1064C52.5057 15.9292 49.473 15.168 46.3 14.8995C44.744 12.971 42.2647 11.8558 39.6204 12.1571C36.8993 12.4671 34.686 14.1993 33.6375 16.5275C30.8031 17.5373 28.1647 18.9605 25.7951 20.7244C24.5696 19.9456 23.0796 19.5654 21.5247 19.7426C17.9143 20.154 15.321 23.4142 15.7323 27.0246C15.8871 28.3832 16.445 29.5975 17.2731 30.5619ZM19.0037 27.7476C20.2426 25.9608 21.6701 24.3148 23.2574 22.8384C22.818 22.712 22.3469 22.6683 21.8643 22.7233C19.9001 22.9471 18.4892 24.7208 18.713 26.685C18.756 27.0621 18.8561 27.4189 19.0037 27.7476Z" fill="white"></path><path fill-rule="evenodd" clip-rule="evenodd" d="M44.2874 17.2392C48.6973 17.3263 52.8539 18.4467 56.5249 20.3683C57.0554 19.3463 58.0684 18.5983 59.2985 18.4582C61.2627 18.2344 63.0364 19.6453 63.2602 21.6094C63.3826 22.6837 63.016 23.701 62.3374 24.4389C67.2301 28.8996 70.5138 35.095 71.2157 42.0525C73.8602 42.296 76.0618 44.3643 76.3743 47.107L77.0137 52.7191C77.3717 55.8613 75.1147 58.6987 71.9725 59.0567L67.0908 59.6129C62.1949 67.3481 53.5629 72.484 43.7313 72.484C36.1519 72.484 29.2854 69.4316 24.294 64.489L18.5509 65.1434C15.4087 65.5014 12.5713 63.2444 12.2133 60.1022L11.5739 54.4901C11.2277 51.452 13.3262 48.6989 16.3057 48.1962C16.1739 47.1021 16.1061 45.9884 16.1061 44.8589C16.1061 39.1843 17.8171 33.9094 20.7512 29.5218C19.6641 29.0114 18.859 27.9658 18.7131 26.685C18.4893 24.7208 19.9002 22.9471 21.8644 22.7233C23.2518 22.5652 24.5441 23.2227 25.2624 24.3147C28.351 21.5363 32.0694 19.4444 36.1776 18.2791C36.6858 16.6258 38.1317 15.3461 39.9601 15.1378C41.7439 14.9345 43.4023 15.8068 44.2874 17.2392ZM23.3555 32.8941C21.2905 36.4032 20.1061 40.4927 20.1061 44.8589C20.1061 45.8324 20.165 46.7923 20.2794 47.735L27.6523 46.8949L23.3555 32.8941ZM16.747 50.802C15.143 51.0729 14.0134 52.5552 14.1997 54.1909L14.8392 59.803C15.0319 61.4949 16.5598 62.7103 18.2517 62.5175L22.1263 62.076C19.5391 58.8338 17.6666 54.9963 16.747 50.802ZM26.9841 61.5226C23.9672 58.4906 21.7681 54.6441 20.7457 50.3418L27.8577 49.5315C27.1203 50.0802 26.6867 50.9958 26.7983 51.9748C26.965 53.4383 28.2866 54.4895 29.7501 54.3228L58.7231 51.0217C60.1866 50.855 61.2378 49.5334 61.0711 48.07C60.9595 47.0909 60.3311 46.2963 59.4892 45.9275L67.3559 45.0312C67.3237 49.543 66.0267 53.7541 63.8019 57.3277L26.9841 61.5226ZM29.7061 63.8724C33.6286 66.7706 38.4799 68.484 43.7313 68.484C50.9093 68.484 57.3397 65.2829 61.6726 60.2303L29.7061 63.8724ZM68.6619 56.774L71.6734 56.4309C73.3653 56.2381 74.5806 54.7102 74.3878 53.0183L73.7484 47.4062C73.5956 46.0649 72.6038 45.0232 71.3563 44.745C71.3564 44.7829 71.3565 44.8209 71.3565 44.8589C71.3565 49.1256 70.3892 53.1664 68.6619 56.774ZM67.2286 42.3858C66.647 36.7946 64.1154 31.783 60.3258 28.043L59.1416 43.3072L67.2286 42.3858ZM57.9442 25.9854C54.2146 23.1724 49.6248 21.4392 44.6394 21.2508C44.1737 22.4216 43.2254 23.366 42.0128 23.8094L42.0744 23.8024C42.0744 23.8024 45.2948 34.3351 51.2217 33.6866C54.7101 33.3049 57.1123 28.0887 57.9442 25.9854ZM36.8505 22.2514C37.5705 23.2303 38.6731 23.895 39.9107 24.0489L39.8922 24.051C39.8922 24.051 38.6895 35.1145 33.0781 35.7538C29.8699 36.1193 26.6324 32.4149 25.0903 30.343C28.0476 26.5506 32.137 23.6841 36.8505 22.2514Z" fill="url(#paint1_linear_136_590)"></path><g filter="url(#filter0_d_136_590)"><path d="M13.9502 54.6435C13.7159 52.5871 15.4214 50.7041 17.7594 50.4377L69.4355 44.55C71.7736 44.2836 73.8589 45.7347 74.0932 47.7911L74.6372 52.5658C74.8715 54.6222 73.1661 56.5052 70.828 56.7716L19.1519 62.6593C16.8139 62.9257 14.7285 61.4746 14.4942 59.4182L13.9502 54.6435Z" fill="white"></path></g><path d="M20.7352 59.8517L19.9011 52.5311L22.9252 52.1866C23.4733 52.1241 23.9585 52.1775 24.3809 52.3466C24.8054 52.5131 25.1478 52.7746 25.4081 53.1312C25.6681 53.4854 25.8268 53.9139 25.8841 54.4167C25.9416 54.9219 25.8812 55.3766 25.7027 55.7807C25.5264 56.1822 25.2463 56.5098 24.8624 56.7636C24.4785 57.0173 24.0066 57.1761 23.4466 57.2399L21.5807 57.4525L21.4219 56.0584L22.9589 55.8833C23.2258 55.8529 23.4433 55.7811 23.6115 55.6678C23.782 55.5542 23.9042 55.4087 23.9781 55.2313C24.0518 55.0515 24.0759 54.8496 24.0503 54.6256C24.0246 54.3992 23.9558 54.2091 23.8442 54.0553C23.7322 53.8991 23.5805 53.786 23.3891 53.7161C23.1977 53.6462 22.9697 53.6263 22.7052 53.6564L21.833 53.7558L22.5046 59.6501L20.7352 59.8517Z" fill="#C79F2D"></path><path d="M27.5029 59.0807L26.6688 51.7601L29.6929 51.4155C30.241 51.3531 30.7252 51.3981 31.1457 51.5505C31.5684 51.7003 31.909 51.9463 32.1677 52.2886C32.4261 52.6285 32.5838 53.0487 32.6408 53.5491C32.6986 54.0567 32.6369 54.5006 32.4558 54.8809C32.2743 55.2589 31.9905 55.564 31.6041 55.7963C31.2176 56.0262 30.7455 56.173 30.1878 56.2365L28.2755 56.4544L28.1166 55.0603L29.7001 54.8799C29.967 54.8495 30.1859 54.7895 30.3568 54.7001C30.5297 54.608 30.6545 54.4851 30.7312 54.3315C30.8076 54.1756 30.8328 53.9844 30.807 53.758C30.7813 53.5316 30.7135 53.3499 30.6037 53.2127C30.4937 53.0732 30.3439 52.9768 30.1544 52.9235C29.9646 52.8679 29.7374 52.8552 29.4729 52.8853L28.6007 52.9847L29.2723 58.8791L27.5029 59.0807ZM31.2431 55.2653L33.4473 58.4034L31.5171 58.6233L29.3486 55.4812L31.2431 55.2653Z" fill="#C79F2D"></path><path d="M35.3042 50.7762L36.1383 58.0968L34.3689 58.2984L33.5348 50.9778L35.3042 50.7762Z" fill="#C79F2D"></path><path d="M43.9429 53.4997C44.0346 54.3052 43.9575 55.0056 43.7115 55.6009C43.4656 56.1962 43.0946 56.6693 42.5987 57.0203C42.1052 57.3711 41.5308 57.5838 40.8754 57.6584C40.2177 57.7334 39.6089 57.6543 39.0488 57.4212C38.4888 57.1881 38.0221 56.8104 37.6488 56.288C37.2776 55.763 37.0462 55.099 36.9547 54.2959C36.8629 53.4905 36.9388 52.7902 37.1824 52.1952C37.4284 51.5999 37.7982 51.1269 38.2917 50.7762C38.7852 50.4254 39.3608 50.2126 40.0186 50.1377C40.6739 50.063 41.2814 50.141 41.8412 50.3717C42.4034 50.6022 42.8712 50.9798 43.2448 51.5045C43.6184 52.0292 43.8511 52.6943 43.9429 53.4997ZM42.1342 53.7058C42.0799 53.2292 41.9661 52.8342 41.7928 52.5208C41.6218 52.2072 41.4005 51.9802 41.1286 51.8397C40.8591 51.6991 40.548 51.6488 40.1953 51.689C39.845 51.7289 39.5532 51.8479 39.3199 52.0458C39.0866 52.2438 38.9207 52.515 38.8223 52.8593C38.7264 53.2033 38.7055 53.6137 38.7598 54.0903C38.8141 54.5669 38.9267 54.962 39.0977 55.2757C39.271 55.589 39.4935 55.8159 39.7654 55.9563C40.0373 56.0968 40.3484 56.147 40.6987 56.1071C41.0514 56.0669 41.3432 55.948 41.5741 55.7503C41.8074 55.5523 41.9721 55.2813 42.0681 54.9372C42.1664 54.5929 42.1885 54.1824 42.1342 53.7058Z" fill="#C79F2D"></path><path d="M45.5943 57.0194L44.7602 49.6988L47.7842 49.3543C48.3323 49.2918 48.8166 49.3368 49.2371 49.4893C49.6597 49.6391 50.0004 49.8851 50.259 50.2274C50.5174 50.5673 50.6751 50.9874 50.7321 51.4878C50.79 51.9954 50.7283 52.4394 50.5471 52.8197C50.3657 53.1976 50.0818 53.5028 49.6955 53.7351C49.3089 53.965 48.8368 54.1117 48.2792 54.1752L46.3668 54.3931L46.208 52.9991L47.7915 52.8186C48.0584 52.7882 48.2773 52.7283 48.4481 52.6388C48.6211 52.5467 48.7459 52.4239 48.8225 52.2703C48.8989 52.1143 48.9242 51.9232 48.8984 51.6968C48.8726 51.4704 48.8048 51.2886 48.6951 51.1515C48.585 51.0119 48.4352 50.9155 48.2457 50.8623C48.0559 50.8067 47.8288 50.7939 47.5642 50.8241L46.6921 50.9234L47.3636 56.8178L45.5943 57.0194ZM49.3345 53.2041L51.5387 56.3421L49.6084 56.562L47.44 53.4199L49.3345 53.2041Z" fill="#C79F2D"></path><path d="M53.3956 48.7149L54.2296 56.0355L52.4603 56.2371L51.6262 48.9165L53.3956 48.7149Z" fill="#C79F2D"></path><path d="M54.6319 50.0297L54.4682 48.5927L60.6557 47.8877L60.8194 49.3247L58.5996 49.5776L59.27 55.4613L57.5256 55.66L56.8552 49.7764L54.6319 50.0297Z" fill="#C79F2D"></path><path d="M61.3565 47.8079L63.3332 47.5827L65.23 50.4697L65.2943 50.4624L66.4931 47.2227L68.4698 46.9974L66.348 52.1781L66.6266 54.6231L64.8679 54.8235L64.5893 52.3785L61.3565 47.8079Z" fill="#C79F2D"></path></g><defs><filter id="filter0_d_136_590" x="-18.0713" y="18.5184" width="124.73" height="82.1724" filterUnits="userSpaceOnUse" color-interpolation-filters="sRGB"><feGaussianBlur stdDeviation="16"></feGaussianBlur></filter><linearGradient id="paint0_linear_136_590" x1="88" y1="0" x2="0" y2="88" gradientUnits="userSpaceOnUse"><stop stop-color="#383838"></stop><stop offset="1" stop-color="#2B2B2B"></stop></linearGradient><linearGradient id="paint1_linear_136_590" x1="39.9117" y1="15.1433" x2="46.4304" y2="72.3578" gradientUnits="userSpaceOnUse"><stop stop-color="#EDC65E"></stop><stop offset="1" stop-color="#B48E1C"></stop></linearGradient><clipPath id="clip0_136_590"><rect width="74" height="64.3095" fill="white" transform="translate(7 11.8452)"></rect></clipPath></defs></svg>