<svg xmlns="http://www.w3.org/2000/svg" width="96" height="96" viewBox="0 0 96 96" fill="none"><rect width="96" height="96" rx="9" fill="#002E6E"></rect><path fill-rule="evenodd" clip-rule="evenodd" d="M81.5659 44.7352C84.1063 45.8357 86.0048 48.2262 86.3407 51.1745L87.1049 57.8822C87.6051 62.2721 84.4519 66.2362 80.062 66.7364L76.6035 67.1304C70.5629 76.7292 59.8738 83.1079 47.6949 83.1079C38.2985 83.1079 29.7889 79.3109 23.6168 73.1675L19.1749 73.6736C14.785 74.1738 10.8208 71.0205 10.3207 66.6307L9.55643 59.923C9.17595 56.5835 10.9096 53.4905 13.6936 51.9812C13.6072 50.991 13.5631 49.9887 13.5631 48.9761C13.5631 30.1256 28.8445 14.8442 47.6949 14.8442C65.1094 14.8442 79.4777 27.8859 81.5659 44.7352Z" fill="white"></path><path d="M76.7832 48.975C76.7832 65.0399 63.76 78.063 47.6951 78.063C31.6302 78.063 18.6071 65.0399 18.6071 48.975C18.6071 32.9101 31.6302 19.887 47.6951 19.887C63.76 19.887 76.7832 32.9101 76.7832 48.975Z" stroke="#002E6E" stroke-width="4"></path><circle cx="46.3831" cy="25.9786" r="10.854" transform="rotate(-6.5 46.3831 25.9786)" fill="#002E6E" stroke="white" stroke-width="3"></circle><mask id="path-5-outside-1_24879_98091" maskUnits="userSpaceOnUse" x="28.2083" y="32.2849" width="41.919" height="32.2349" fill="black"><rect fill="white" x="28.2083" y="32.2849" width="41.919" height="32.2349"></rect><path fill-rule="evenodd" clip-rule="evenodd" d="M47.0693 38.5769L46.401 52.0706L49.734 55.3849L52.2358 51.4059L48.5495 38.4088C57.1608 37.7201 64.5943 42.1948 65.4613 49.8039C66.0804 55.2376 58.9974 57.3988 50.0722 58.4157C41.147 59.4326 33.7594 58.9201 33.1403 53.4864C32.2729 45.8731 38.5166 39.8386 47.0693 38.5769Z"></path></mask><path fill-rule="evenodd" clip-rule="evenodd" d="M47.0693 38.5769L46.401 52.0706L49.734 55.3849L52.2358 51.4059L48.5495 38.4088C57.1608 37.7201 64.5943 42.1948 65.4613 49.8039C66.0804 55.2376 58.9974 57.3988 50.0722 58.4157C41.147 59.4326 33.7594 58.9201 33.1403 53.4864C32.2729 45.8731 38.5166 39.8386 47.0693 38.5769Z" fill="#002E6E"></path><path d="M46.401 52.0705L43.4047 51.9221L43.3386 53.256L44.2857 54.1977L46.401 52.0705ZM47.0693 38.5767L50.0656 38.7251L50.2463 35.0756L46.6314 35.6089L47.0693 38.5767ZM49.7339 55.3847L47.6186 57.512L50.2776 60.1562L52.2736 56.9816L49.7339 55.3847ZM52.2358 51.4057L54.7755 53.0025L55.4864 51.8719L55.1219 50.5871L52.2358 51.4057ZM48.5494 38.4086L48.3103 35.4181L44.6656 35.7096L45.6633 39.2272L48.5494 38.4086ZM49.3973 52.2188L50.0656 38.7251L44.0729 38.4284L43.4047 51.9221L49.3973 52.2188ZM51.8493 53.2575L48.5164 49.9432L44.2857 54.1977L47.6186 57.512L51.8493 53.2575ZM49.6961 49.8088L47.1942 53.7879L52.2736 56.9816L54.7755 53.0025L49.6961 49.8088ZM45.6633 39.2272L49.3496 52.2243L55.1219 50.5871L51.4356 37.59L45.6633 39.2272ZM48.7886 41.399C56.4377 40.7874 61.8625 44.719 62.4805 50.1433L68.442 49.4641C67.3261 39.6701 57.8837 34.6526 48.3103 35.4181L48.7886 41.399ZM62.4805 50.1433C62.5515 50.7659 62.4155 51.1656 62.1489 51.5312C61.8268 51.973 61.1935 52.512 60.049 53.0607C57.7181 54.1781 54.1394 54.9327 49.7326 55.4348L50.4118 61.3962C54.9301 60.8814 59.3555 60.047 62.6427 58.4711C64.3071 57.6732 65.8863 56.5896 66.9971 55.0661C68.1633 53.4665 68.6806 51.5584 68.442 49.4641L62.4805 50.1433ZM49.7326 55.4348C45.3257 55.9369 41.669 56.0067 39.1465 55.4422C37.9079 55.1651 37.1695 54.7823 36.7564 54.4244C36.4143 54.128 36.1919 53.7691 36.121 53.1466L30.1596 53.8258C30.3982 55.9201 31.3314 57.663 32.8276 58.9592C34.2526 60.1938 36.0351 60.8944 37.8364 61.2974C41.3938 62.0934 45.8935 61.911 50.4118 61.3962L49.7326 55.4348ZM36.121 53.1466C35.5027 47.7196 39.9092 42.6654 47.5071 41.5446L46.6314 35.6089C37.124 37.0114 29.0431 44.0263 30.1596 53.8258L36.121 53.1466Z" fill="white" mask="url(#path-5-outside-1_24879_98091)"></path><rect x="12.1162" y="54.77" width="71.0331" height="16.4117" rx="5" transform="rotate(-6.5 12.1162 54.77)" fill="white" stroke="#002E6E" stroke-width="3"></rect><path d="M24.5134 65.6421L23.5666 57.3322L26.9993 56.9411C27.6214 56.8702 28.1722 56.9307 28.6517 57.1227C29.1336 57.3117 29.5223 57.6086 29.8177 58.0133C30.1129 58.4154 30.293 58.9018 30.358 59.4726C30.4234 60.046 30.3548 60.5621 30.1522 61.0209C29.952 61.4767 29.6341 61.8485 29.1983 62.1366C28.7626 62.4246 28.2268 62.6049 27.5912 62.6773L25.4731 62.9186L25.2928 61.3362L27.0376 61.1374C27.3405 61.1029 27.5874 61.0213 27.7783 60.8927C27.9719 60.7638 28.1106 60.5986 28.1945 60.3972C28.2781 60.1932 28.3055 59.964 28.2765 59.7097C28.2472 59.4527 28.1692 59.2369 28.0424 59.0623C27.9154 58.885 27.7432 58.7566 27.5259 58.6773C27.3086 58.5979 27.0498 58.5753 26.7496 58.6095L25.7595 58.7223L26.5218 65.4132L24.5134 65.6421ZM32.1956 64.7668L31.2488 56.4569L34.6815 56.0658C35.3037 55.9949 35.8534 56.046 36.3307 56.219C36.8105 56.3891 37.1971 56.6684 37.4907 57.0569C37.7841 57.4427 37.9631 57.9197 38.0278 58.4877C38.0934 59.0639 38.0234 59.5678 37.8178 59.9995C37.6118 60.4286 37.2896 60.7749 36.8511 61.0386C36.4122 61.2996 35.8763 61.4661 35.2434 61.5383L33.0726 61.7856L32.8923 60.2032L34.6898 59.9984C34.9927 59.9638 35.2412 59.8958 35.4351 59.7942C35.6315 59.6897 35.7731 59.5502 35.8601 59.3759C35.9468 59.1989 35.9755 58.9819 35.9463 58.7249C35.917 58.4679 35.84 58.2616 35.7154 58.1059C35.5905 57.9475 35.4205 57.8381 35.2054 57.7776C34.9899 57.7145 34.7321 57.7 34.4318 57.7342L33.4418 57.847L34.2041 64.5379L32.1956 64.7668ZM36.4413 60.4359L38.9433 63.998L36.7522 64.2476L34.2908 60.6809L36.4413 60.4359ZM41.0511 55.3401L41.9979 63.65L39.9894 63.8788L39.0427 55.5689L41.0511 55.3401ZM44.4273 54.9554L46.9791 60.83L47.0481 60.8222L48.213 54.5241L50.4609 54.268L48.6039 62.8973L45.93 63.2019L42.1794 55.2115L44.4273 54.9554ZM53.0898 62.3862L50.9312 62.6321L52.7882 54.0028L55.4621 53.6982L59.2127 61.6886L57.0541 61.9345L54.3941 55.9407L54.3292 55.9481L53.0898 62.3862ZM52.4291 59.1486L56.9411 58.6345L57.115 60.1602L52.603 60.6743L52.4291 59.1486ZM58.2654 55.0311L58.0795 53.3999L65.1032 52.5997L65.289 54.2308L62.7693 54.5179L63.5302 61.1967L61.5501 61.4223L60.7892 54.7435L58.2654 55.0311ZM67.2594 60.7718L66.3126 52.4619L72.1068 51.8017L72.2926 53.4329L68.5069 53.8642L68.7011 55.5684L72.1906 55.1708L72.3769 56.806L68.8874 57.2036L69.082 58.9118L72.8677 58.4805L73.0536 60.1116L67.2594 60.7718Z" fill="#002E6E"></path></svg>