<svg xmlns="http://www.w3.org/2000/svg" width="96" height="96" viewBox="0 0 96 96" fill="none"><rect width="96" height="96" rx="9" fill="#FFD643"></rect><path fill-rule="evenodd" clip-rule="evenodd" d="M81.4098 43.6262C85.0932 43.977 88.1562 46.8622 88.5918 50.6854L89.356 57.3931C89.8562 61.783 86.703 65.7471 82.3131 66.2473L76.7595 66.88C70.748 76.6181 59.9793 83.1079 47.6949 83.1079C38.1924 83.1079 29.5969 79.2247 23.4087 72.9586L16.9246 73.6974C12.5347 74.1975 8.57056 71.0443 8.0704 66.6544L7.30616 59.9467C6.83357 55.7989 9.62266 52.0311 13.6347 51.2063C13.5872 50.4691 13.563 49.7254 13.563 48.9761C13.563 30.1256 28.8444 14.8442 47.6949 14.8442C64.7253 14.8442 78.8425 27.3171 81.4098 43.6262Z" fill="white"></path><path d="M76.7831 48.975C76.7831 65.0399 63.76 78.063 47.6951 78.063C31.6302 78.063 18.607 65.0399 18.607 48.975C18.607 32.9101 31.6302 19.887 47.6951 19.887C63.76 19.887 76.7831 32.9101 76.7831 48.975Z" stroke="#FFD643" stroke-width="4"></path><mask id="path-4-outside-1_25268_88462" maskUnits="userSpaceOnUse" x="25.7181" y="11.4977" width="44.1831" height="52.1064" fill="black"><rect fill="white" x="25.7181" y="11.4977" width="44.1831" height="52.1064"></rect><path fill-rule="evenodd" clip-rule="evenodd" d="M47.4228 35.4265C52.5934 34.8374 56.3075 30.1683 55.7184 24.9977C55.1292 19.8271 50.4601 16.113 45.2895 16.7021C40.1189 17.2913 36.4048 21.9604 36.994 27.131C37.5831 32.3016 42.2522 36.0157 47.4228 35.4265ZM46.491 46.2261C48.7643 43.9455 49.153 39.4288 49.2169 38.2311C57.6003 37.8193 64.7239 42.2893 65.5744 49.7538C66.1981 55.2275 59.063 57.4045 50.0722 58.4289C41.0814 59.4532 33.6395 58.937 33.0159 53.4633C32.3155 47.3164 36.217 42.1912 42.2295 39.7443C42.7426 41.3846 44.0298 44.6565 46.491 46.2261Z"></path></mask><path fill-rule="evenodd" clip-rule="evenodd" d="M47.4228 35.4265C52.5934 34.8374 56.3075 30.1683 55.7184 24.9977C55.1292 19.8271 50.4601 16.113 45.2895 16.7021C40.1189 17.2913 36.4048 21.9604 36.994 27.131C37.5831 32.3016 42.2522 36.0157 47.4228 35.4265ZM46.491 46.2261C48.7643 43.9455 49.153 39.4288 49.2169 38.2311C57.6003 37.8193 64.7239 42.2893 65.5744 49.7538C66.1981 55.2275 59.063 57.4045 50.0722 58.4289C41.0814 59.4532 33.6395 58.937 33.0159 53.4633C32.3155 47.3164 36.217 42.1912 42.2295 39.7443C42.7426 41.3846 44.0298 44.6565 46.491 46.2261Z" fill="#FFD643"></path><path d="M49.2169 38.2311L49.0697 35.2347L46.3654 35.3675L46.2211 38.0713L49.2169 38.2311ZM46.491 46.2261L44.8779 48.7555L46.9122 50.0529L48.6157 48.344L46.491 46.2261ZM42.2295 39.7443L45.0927 38.8488L44.1193 35.7363L41.0987 36.9656L42.2295 39.7443ZM52.7376 25.3373C53.1392 28.8617 50.6076 32.0443 47.0832 32.4458L47.7625 38.4073C54.5793 37.6306 59.4758 31.4749 58.6991 24.658L52.7376 25.3373ZM45.6291 19.6829C49.1535 19.2813 52.3361 21.8129 52.7376 25.3373L58.6991 24.658C57.9224 17.8412 51.7667 12.9447 44.9499 13.7214L45.6291 19.6829ZM39.9747 26.7914C39.5731 23.267 42.1047 20.0844 45.6291 19.6829L44.9499 13.7214C38.1331 14.4981 33.2366 20.6538 34.0132 27.4706L39.9747 26.7914ZM47.0832 32.4458C43.5588 32.8474 40.3762 30.3158 39.9747 26.7914L34.0132 27.4706C34.7899 34.2875 40.9456 39.1839 47.7625 38.4073L47.0832 32.4458ZM46.2211 38.0713C46.1945 38.5699 46.0969 39.7899 45.7713 41.0978C45.4265 42.4828 44.9275 43.5451 44.3662 44.1082L48.6157 48.344C50.3278 46.6264 51.1597 44.2901 51.5936 42.5472C52.0467 40.7272 52.1753 39.09 52.2126 38.3909L46.2211 38.0713ZM68.5551 49.4142C67.4635 39.8331 58.4197 34.7755 49.0697 35.2347L49.364 41.2275C56.781 40.8632 61.9844 44.7455 62.5937 50.0934L68.5551 49.4142ZM50.4118 61.4096C54.9629 60.891 59.4178 60.0508 62.7256 58.465C64.4003 57.6622 65.9877 56.5726 67.1037 55.0418C68.2752 53.435 68.7949 51.5185 68.5551 49.4142L62.5937 50.0934C62.6658 50.7259 62.5274 51.1341 62.2555 51.507C61.9282 51.9559 61.2868 52.501 60.1319 53.0546C57.7804 54.1819 54.1723 54.9423 49.7326 55.4481L50.4118 61.4096ZM30.0352 53.8029C30.2749 55.9073 31.2124 57.6578 32.7153 58.9599C34.1471 60.2003 35.9388 60.9049 37.7513 61.3105C41.331 62.1115 45.8607 61.9281 50.4118 61.4096L49.7326 55.4481C45.2929 55.954 41.6063 56.0247 39.0614 55.4553C37.8116 55.1756 37.064 54.7889 36.6441 54.4251C36.2953 54.1229 36.0687 53.7563 35.9966 53.1237L30.0352 53.8029ZM41.0987 36.9656C34.1935 39.7757 29.1433 45.975 30.0352 53.8029L35.9966 53.1237C35.4878 48.6579 38.2405 44.6066 43.3604 42.523L41.0987 36.9656ZM48.104 43.6967C47.4434 43.2754 46.8034 42.5236 46.2373 41.5283C45.6853 40.558 45.3112 39.5471 45.0927 38.8488L39.3663 40.6398C39.6609 41.5818 40.1869 43.027 41.0221 44.4951C41.8431 45.9383 43.0773 47.6072 44.8779 48.7555L48.104 43.6967Z" fill="white" mask="url(#path-4-outside-1_25268_88462)"></path><rect x="10.0676" y="54.7705" width="75.152" height="16.4117" rx="5" transform="rotate(-6.5 10.0676 54.7705)" fill="white" stroke="#FFD643" stroke-width="3"></rect><path d="M20.123 59.9777C20.0621 59.6832 19.9153 59.4657 19.6828 59.325C19.4527 59.1813 19.1416 59.1318 18.7493 59.1765C18.4897 59.2061 18.2771 59.2646 18.1117 59.3519C17.9463 59.4393 17.8271 59.5474 17.7541 59.6763C17.6808 59.8025 17.6514 59.9414 17.6659 60.0932C17.6747 60.2183 17.7115 60.3251 17.7764 60.4136C17.844 60.5018 17.9347 60.5764 18.0485 60.6374C18.1647 60.6954 18.3017 60.7428 18.4593 60.7797C18.617 60.8165 18.7928 60.8444 18.9868 60.8634L19.7194 60.9444C20.1407 60.9868 20.5167 61.0645 20.8475 61.1775C21.1809 61.2903 21.4662 61.4372 21.7033 61.6185C21.9431 61.7994 22.1338 62.0174 22.2752 62.2726C22.4166 62.5278 22.5076 62.8216 22.5482 63.154C22.6053 63.6791 22.5241 64.1445 22.3045 64.5504C22.085 64.9563 21.7405 65.2874 21.271 65.5437C20.8041 65.7996 20.2245 65.9671 19.532 66.046C18.8368 66.1252 18.219 66.0901 17.6786 65.9406C17.1382 65.7912 16.7005 65.5205 16.3654 65.1285C16.0302 64.7365 15.8216 64.2163 15.7396 63.568L17.6628 63.3489C17.7096 63.6148 17.8067 63.8298 17.9542 63.9939C18.1016 64.1579 18.2915 64.2733 18.5238 64.34C18.7588 64.4064 19.0237 64.4228 19.3186 64.3892C19.5891 64.3584 19.8149 64.2957 19.9959 64.2011C20.1796 64.1061 20.3155 63.9879 20.4035 63.8463C20.4915 63.7048 20.5273 63.55 20.5109 63.382C20.4903 63.2254 20.4264 63.097 20.319 62.9969C20.2114 62.8941 20.0543 62.8134 19.8475 62.7547C19.6432 62.693 19.3856 62.6443 19.0746 62.6085L18.1832 62.5045C17.4448 62.4215 16.8478 62.2196 16.392 61.8989C15.9359 61.5755 15.6733 61.0985 15.6042 60.4679C15.5429 59.9542 15.6296 59.4881 15.8641 59.0696C16.0986 58.651 16.4498 58.3055 16.9174 58.033C17.3851 57.7605 17.934 57.5883 18.5643 57.5165C19.2081 57.4432 19.7792 57.4891 20.2775 57.6542C20.7783 57.8164 21.1822 58.0787 21.4893 58.441C21.7963 58.8033 21.982 59.2425 22.0463 59.7586L20.123 59.9777ZM23.033 58.7748L22.8471 57.1436L29.8707 56.3434L30.0566 57.9745L27.5368 58.2616L28.2978 64.9404L26.3177 65.166L25.5568 58.4872L23.033 58.7748ZM32.7867 64.4289L30.6281 64.6749L32.4851 56.0455L35.159 55.7409L38.9096 63.7313L36.751 63.9772L34.091 57.9834L34.0261 57.9908L32.7867 64.4289ZM32.126 61.1913L36.638 60.6773L36.8119 62.2029L32.2999 62.717L32.126 61.1913ZM46.1583 54.4877L47.1051 62.7975L45.4009 62.9917L41.5476 58.5724L41.4949 58.5785L42.0413 63.3745L40.0328 63.6033L39.086 55.2935L40.8145 55.0965L44.6304 59.5118L44.6994 59.504L44.1539 54.716L46.1583 54.4877ZM51.6681 62.2776L48.5966 62.6276L47.6498 54.3177L50.7173 53.9682C51.564 53.8718 52.3119 53.9551 52.9612 54.2181C53.6128 54.4782 54.1404 54.9003 54.544 55.4846C54.9473 56.0661 55.1981 56.7884 55.2965 57.6513C55.3951 58.5169 55.3135 59.2797 55.0516 59.9398C54.7925 60.5995 54.3749 61.1308 53.7987 61.5334C53.2223 61.9334 52.5121 62.1815 51.6681 62.2776ZM50.41 60.6865L51.3959 60.5741C51.8612 60.5211 52.2459 60.3978 52.5499 60.2043C52.8563 60.0077 53.0717 59.7215 53.196 59.3456C53.3227 58.9667 53.352 58.4784 53.2839 57.8806C53.2158 57.2828 53.0777 56.8162 52.8696 56.481C52.6612 56.143 52.3844 55.9142 52.0392 55.7946C51.6965 55.672 51.287 55.6378 50.8109 55.6921L49.8533 55.8012L50.41 60.6865ZM58.478 61.5018L56.3194 61.7477L58.1764 53.1184L60.8503 52.8137L64.6009 60.8041L62.4422 61.0501L59.7823 55.0563L59.7174 55.0637L58.478 61.5018ZM57.8173 58.2642L62.3293 57.7501L62.5031 59.2758L57.9911 59.7898L57.8173 58.2642ZM65.7241 60.6762L64.7773 52.3663L68.21 51.9752C68.8321 51.9043 69.3819 51.9554 69.8592 52.1284C70.3389 52.2985 70.7256 52.5778 71.0192 52.9663C71.3125 53.3521 71.4915 53.8291 71.5563 54.3971C71.6219 54.9733 71.5519 55.4772 71.3463 55.9089C71.1403 56.3379 70.8181 56.6843 70.3795 56.948C69.9407 57.209 69.4048 57.3755 68.7718 57.4477L66.601 57.695L66.4207 56.1125L68.2182 55.9077C68.5212 55.8732 68.7696 55.8052 68.9636 55.7036C69.1599 55.599 69.3016 55.4596 69.3886 55.2853C69.4753 55.1083 69.504 54.8912 69.4747 54.6343C69.4454 54.3773 69.3685 54.171 69.2439 54.0153C69.119 53.8569 68.949 53.7475 68.7338 53.687C68.5184 53.6239 68.2605 53.6094 67.9603 53.6436L66.9702 53.7564L67.7326 60.4473L65.7241 60.6762ZM69.9697 56.3453L72.4718 59.9074L70.2807 60.157L67.8192 56.5903L69.9697 56.3453ZM76.5895 59.4382L73.5179 59.7882L72.5711 51.4783L75.6386 51.1288C76.4853 51.0323 77.2333 51.1156 77.8825 51.3787C78.5342 51.6388 79.0618 52.0609 79.4654 52.6452C79.8687 53.2267 80.1195 53.9489 80.2178 54.8118C80.3164 55.6775 80.2348 56.4403 79.973 57.1004C79.7139 57.7601 79.2962 58.2913 78.7201 58.694C78.1437 59.094 77.4334 59.3421 76.5895 59.4382ZM75.3313 57.8471L76.3173 57.7347C76.7826 57.6817 77.1672 57.5584 77.4712 57.3648C77.7776 57.1683 77.993 56.882 78.1173 56.5062C78.2441 56.1273 78.2734 55.639 78.2053 55.0411C78.1371 54.4433 77.999 53.9768 77.791 53.6415C77.5826 53.3036 77.3058 53.0748 76.9606 52.9552C76.6178 52.8326 76.2084 52.7984 75.7323 52.8527L74.7747 52.9618L75.3313 57.8471Z" fill="#FFD643"></path></svg>