<svg xmlns="http://www.w3.org/2000/svg" width="96" height="96" viewBox="0 0 96 96" fill="none"><rect width="96" height="96" rx="9" fill="#4090FF"></rect><path fill-rule="evenodd" clip-rule="evenodd" d="M81.5267 44.4311C84.3384 45.4106 86.4887 47.9276 86.8483 51.0839L87.6125 57.7915C88.1127 62.1814 84.9595 66.1456 80.5696 66.6457L76.6256 67.0951C70.589 76.7135 59.8886 83.1079 47.6948 83.1079C38.2834 83.1079 29.7616 79.2987 23.5871 73.1381L18.6727 73.698C14.2828 74.1982 10.3186 71.0449 9.81848 66.655L9.05423 59.9474C8.65216 56.4184 10.611 53.1646 13.6752 51.7643C13.6009 50.8447 13.563 49.9148 13.563 48.9761C13.563 30.1256 28.8443 14.8442 47.6948 14.8442C65.0043 14.8442 79.3044 27.7293 81.5267 44.4311Z" fill="white"></path><path d="M76.7832 48.975C76.7832 65.0399 63.76 78.063 47.6951 78.063C31.6302 78.063 18.6071 65.0399 18.6071 48.975C18.6071 32.9101 31.6302 19.887 47.6951 19.887C63.76 19.887 76.7832 32.9101 76.7832 48.975Z" stroke="#4090FF" stroke-width="4"></path><mask id="path-4-outside-1_24879_98038" maskUnits="userSpaceOnUse" x="25.7181" y="11.4977" width="44.1831" height="52.1064" fill="black"><rect fill="white" x="25.7181" y="11.4977" width="44.1831" height="52.1064"></rect><path fill-rule="evenodd" clip-rule="evenodd" d="M47.4226 35.4266C52.5932 34.8375 56.3072 30.1683 55.7181 24.9977C55.129 19.8271 50.4598 16.1131 45.2892 16.7022C40.1186 17.2913 36.4046 21.9605 36.9937 27.1311C37.5828 32.3017 42.252 36.0157 47.4226 35.4266ZM50.0723 58.429C59.063 57.4046 66.1981 55.2276 65.5744 49.7539C64.6759 41.8676 56.7751 37.3237 47.7843 38.3481C38.7935 39.3725 32.1174 45.5772 33.0159 53.4635C33.6396 58.9372 41.0815 59.4533 50.0723 58.429Z"></path></mask><path fill-rule="evenodd" clip-rule="evenodd" d="M47.4226 35.4266C52.5932 34.8375 56.3072 30.1683 55.7181 24.9977C55.129 19.8271 50.4598 16.1131 45.2892 16.7022C40.1186 17.2913 36.4046 21.9605 36.9937 27.1311C37.5828 32.3017 42.252 36.0157 47.4226 35.4266ZM50.0723 58.429C59.063 57.4046 66.1981 55.2276 65.5744 49.7539C64.6759 41.8676 56.7751 37.3237 47.7843 38.3481C38.7935 39.3725 32.1174 45.5772 33.0159 53.4635C33.6396 58.9372 41.0815 59.4533 50.0723 58.429Z" fill="#4090FF"></path><path d="M52.7374 25.3373C53.1389 28.8617 50.6074 32.0443 47.083 32.4459L47.7622 38.4073C54.579 37.6306 59.4755 31.4749 58.6988 24.6581L52.7374 25.3373ZM45.6288 19.6829C49.1532 19.2813 52.3358 21.8129 52.7374 25.3373L58.6988 24.6581C57.9221 17.8413 51.7664 12.9448 44.9496 13.7215L45.6288 19.6829ZM39.9744 26.7915C39.5728 23.2671 42.1044 20.0844 45.6288 19.6829L44.9496 13.7215C38.1328 14.4981 33.2363 20.6539 34.013 27.4707L39.9744 26.7915ZM47.083 32.4459C43.5586 32.8474 40.376 30.3159 39.9744 26.7915L34.013 27.4707C34.7896 34.2875 40.9454 39.184 47.7622 38.4073L47.083 32.4459ZM62.5937 50.0935C62.6658 50.726 62.5274 51.1342 62.2555 51.5071C61.9282 51.9561 61.2868 52.5011 60.1319 53.0547C57.7804 54.182 54.1723 54.9424 49.7326 55.4483L50.4119 61.4097C54.963 60.8912 59.4178 60.0509 62.7256 58.4651C64.4004 57.6623 65.9877 56.5727 67.1037 55.0419C68.2752 53.4352 68.7949 51.5186 68.5551 49.4143L62.5937 50.0935ZM48.1239 41.3288C56.159 40.4133 61.9528 44.4679 62.5937 50.0935L68.5551 49.4143C67.399 39.2673 57.3912 34.2341 47.4447 35.3674L48.1239 41.3288ZM35.9966 53.1238C35.3557 47.4983 40.0888 42.2443 48.1239 41.3288L47.4447 35.3674C37.4983 36.5007 28.8791 43.6561 30.0352 53.8031L35.9966 53.1238ZM49.7326 55.4483C45.293 55.9541 41.6063 56.0248 39.0615 55.4554C37.8116 55.1757 37.0641 54.789 36.6441 54.4252C36.2953 54.123 36.0687 53.7564 35.9966 53.1238L30.0352 53.8031C30.275 55.9074 31.2124 57.6579 32.7153 58.96C34.1471 60.2004 35.9389 60.905 37.7513 61.3106C41.3311 62.1116 45.8608 61.9282 50.4119 61.4097L49.7326 55.4483Z" fill="white" mask="url(#path-4-outside-1_24879_98038)"></path><rect x="11.8254" y="54.77" width="71.6185" height="16.4117" rx="5" transform="rotate(-6.5 11.8254 54.77)" fill="white" stroke="#4090FF" stroke-width="3"></rect><path d="M25.4356 59.712C25.3747 59.4175 25.228 59.2 24.9955 59.0593C24.7654 58.9156 24.4542 58.8661 24.062 58.9108C23.8023 58.9404 23.5897 58.9989 23.4243 59.0862C23.2589 59.1736 23.1397 59.2817 23.0667 59.4106C22.9934 59.5368 22.964 59.6757 22.9786 59.8275C22.9873 59.9526 23.0242 60.0594 23.089 60.1479C23.1566 60.2361 23.2473 60.3107 23.3612 60.3717C23.4774 60.4297 23.6143 60.4771 23.772 60.514C23.9296 60.5508 24.1054 60.5787 24.2994 60.5977L25.032 60.6787C25.4533 60.7211 25.8294 60.7988 26.1601 60.9118C26.4936 61.0246 26.7788 61.1715 27.016 61.3528C27.2558 61.5337 27.4464 61.7517 27.5878 62.0069C27.7292 62.2621 27.8203 62.5559 27.8609 62.8883C27.918 63.4134 27.8367 63.8788 27.6172 64.2847C27.3976 64.6906 27.0531 65.0217 26.5836 65.278C26.1168 65.5339 25.5371 65.7014 24.8446 65.7803C24.1495 65.8595 23.5317 65.8244 22.9913 65.6749C22.4509 65.5255 22.0131 65.2548 21.678 64.8628C21.3429 64.4708 21.1343 63.9506 21.0522 63.3023L22.9755 63.0832C23.0222 63.3491 23.1193 63.5641 23.2668 63.7282C23.4143 63.8922 23.6042 64.0076 23.8365 64.0743C24.0714 64.1407 24.3364 64.1571 24.6312 64.1235C24.9017 64.0927 25.1275 64.03 25.3085 63.9354C25.4923 63.8404 25.6281 63.7222 25.7161 63.5806C25.8041 63.4391 25.8399 63.2843 25.8235 63.1163C25.8029 62.9597 25.739 62.8313 25.6317 62.7312C25.5241 62.6284 25.3669 62.5477 25.1602 62.489C24.9559 62.4273 24.6982 62.3786 24.3872 62.3428L23.4958 62.2388C22.7575 62.1558 22.1604 61.9539 21.7046 61.6332C21.2485 61.3098 20.9859 60.8328 20.9168 60.2022C20.8555 59.6885 20.9422 59.2224 21.1767 58.8039C21.4113 58.3853 21.7624 58.0398 22.23 57.7673C22.6977 57.4948 23.2467 57.3226 23.8769 57.2508C24.5207 57.1775 25.0918 57.2234 25.5902 57.3886C26.0909 57.5507 26.4948 57.813 26.8019 58.1753C27.109 58.5376 27.2947 58.9768 27.3589 59.4929L25.4356 59.712ZM28.3456 58.5091L28.1597 56.8779L35.1834 56.0777L35.3692 57.7088L32.8495 57.9959L33.6104 64.6747L31.6303 64.9003L30.8694 58.2215L28.3456 58.5091ZM38.0994 64.1632L35.9408 64.4092L37.7977 55.7798L40.4717 55.4752L44.2222 63.4656L42.0636 63.7115L39.4037 57.7177L39.3388 57.7251L38.0994 64.1632ZM37.4387 60.9256L41.9507 60.4116L42.1245 61.9372L37.6125 62.4513L37.4387 60.9256ZM45.3454 63.3376L44.3986 55.0278L47.8313 54.6366C48.4535 54.5658 49.0032 54.6168 49.4806 54.7899C49.9603 54.9599 50.3469 55.2392 50.6406 55.6277C50.9339 56.0136 51.1129 56.4905 51.1776 57.0586C51.2433 57.6347 51.1733 58.1387 50.9676 58.5704C50.7617 58.9994 50.4394 59.3458 50.0009 59.6094C49.5621 59.8704 49.0262 60.037 48.3932 60.1091L46.2224 60.3564L46.0421 58.774L47.8396 58.5692C48.1426 58.5347 48.391 58.4666 48.585 58.3651C48.7813 58.2605 48.923 58.1211 49.01 57.9467C49.0967 57.7697 49.1254 57.5527 49.0961 57.2957C49.0668 57.0387 48.9899 56.8324 48.8653 56.6767C48.7404 56.5183 48.5703 56.4089 48.3552 56.3485C48.1397 56.2853 47.8819 56.2709 47.5816 56.3051L46.5916 56.4179L47.3539 63.1088L45.3454 63.3376ZM49.5911 59.0067L52.0932 62.5688L49.9021 62.8185L47.4406 59.2517L49.5911 59.0067ZM52.1065 55.8019L51.9206 54.1707L58.9443 53.3705L59.1301 55.0016L56.6104 55.2887L57.3713 61.9675L55.3912 62.1931L54.6303 55.5143L52.1065 55.8019ZM61.1005 61.5426L60.1537 53.2327L65.9479 52.5725L66.1337 54.2037L62.348 54.635L62.5422 56.3392L66.0317 55.9416L66.218 57.5768L62.7285 57.9744L62.9231 59.6826L66.7088 59.2513L66.8947 60.8824L61.1005 61.5426ZM68.381 60.7131L67.4342 52.4032L70.8669 52.0121C71.4891 51.9412 72.0388 51.9923 72.5162 52.1653C72.9959 52.3354 73.3825 52.6146 73.6762 53.0032C73.9695 53.389 74.1485 53.8659 74.2132 54.434C74.2789 55.0102 74.2089 55.5141 74.0032 55.9458C73.7973 56.3748 73.475 56.7212 73.0365 56.9849C72.5977 57.2459 72.0618 57.4124 71.4288 57.4845L69.258 57.7319L69.0777 56.1494L70.8752 55.9446C71.1782 55.9101 71.4266 55.8421 71.6206 55.7405C71.8169 55.6359 71.9586 55.4965 72.0456 55.3222C72.1323 55.1451 72.161 54.9281 72.1317 54.6711C72.1024 54.4142 72.0255 54.2078 71.9009 54.0521C71.776 53.8937 71.6059 53.7843 71.3908 53.7239C71.1753 53.6608 70.9175 53.6463 70.6172 53.6805L69.6272 53.7933L70.3895 60.4842L68.381 60.7131ZM72.6267 56.3821L75.1287 59.9442L72.9377 60.1939L70.4762 56.6272L72.6267 56.3821Z" fill="#4090FF"></path></svg>